<svg width="24" height="22" viewBox="0 0 24 22" fill="none" xmlns="http://www.w3.org/2000/svg">
<path d="M1 16.6667L1.61775 17.2657C4.43969 20.0021 8.821 20.312 12 18V18V18C15.179 15.688 19.5603 15.9979 22.3823 18.7343L23 19.3333" stroke="#0B0B0B" stroke-width="2" stroke-linecap="round"/>
<path d="M1 9.66667L1.61775 10.2657C4.43969 13.0021 8.821 13.312 12 11V11V11C15.179 8.688 19.5603 8.99788 22.3823 11.7343L23 12.3333" stroke="#0B0B0B" stroke-width="2" stroke-linecap="round"/>
<path d="M1 2.66667L1.61775 3.2657C4.43969 6.00212 8.821 6.312 12 4V4V4C15.179 1.688 19.5603 1.99788 22.3823 4.7343L23 5.33333" stroke="#0B0B0B" stroke-width="2" stroke-linecap="round"/>
</svg>
